<svg width="64" height="64" viewBox="0 0 64 64" fill="none" xmlns="http://www.w3.org/2000/svg">
<path d="M25.306 3.34592C16.032 0.873924 6.50002 6.34993 4.01602 15.5759C2.38702 21.6209 4.19002 27.7769 8.23602 31.9999C6.2203 34.0942 4.7684 36.6653 4.01602 39.4729C1.53002 48.6999 7.03402 58.1819 16.308 60.6539C19.1553 61.4154 22.1491 61.4426 25.0098 60.7331C27.8704 60.0236 30.5045 58.6006 32.666 56.5969C34.7494 58.5326 37.277 59.9259 40.026 60.6539C49.3 63.1259 58.832 57.6509 61.317 48.4249C62.945 42.3789 61.143 36.2219 57.097 32.0009C59.1129 29.9064 60.5648 27.3349 61.317 24.5269C63.802 15.3009 58.298 5.81892 49.025 3.34692C46.1778 2.58527 43.1841 2.55781 40.3234 3.26712C37.4627 3.97643 34.8286 5.39935 32.667 7.40292C30.5833 5.46748 28.0553 4.07353 25.306 3.34592Z" fill="#2C4E7B"/>
</svg>
