<svg width="30" height="30" viewBox="0 0 30 30" fill="none" xmlns="http://www.w3.org/2000/svg">
<path fill-rule="evenodd" clip-rule="evenodd" d="M6.5 15C6.5 10.3056 10.3056 6.5 15 6.5C19.6944 6.5 23.5 10.3056 23.5 15C23.5 19.6944 19.6944 23.5 15 23.5C10.3056 23.5 6.5 19.6944 6.5 15ZM15 4.75C9.33908 4.75 4.75 9.33908 4.75 15C4.75 20.6609 9.33908 25.25 15 25.25C20.6609 25.25 25.25 20.6609 25.25 15C25.25 9.33908 20.6609 4.75 15 4.75ZM15.875 9.375C15.875 8.89175 15.4832 8.5 15 8.5C14.5168 8.5 14.125 8.89175 14.125 9.375V13.5842L11.6413 12.3424C11.2091 12.1263 10.6835 12.3015 10.4674 12.7337C10.2513 13.1659 10.4265 13.6915 10.8587 13.9076L14.6087 15.7826C14.8799 15.9182 15.202 15.9038 15.46 15.7443C15.718 15.5849 15.875 15.3033 15.875 15V9.375Z" fill="#212121"/>
</svg>
