<svg width="64" height="64" viewBox="0 0 64 64" fill="none" xmlns="http://www.w3.org/2000/svg">
<path d="M4.20062 14.546C2.19336 7.99309 8.32609 1.86035 14.879 3.86761L29.8293 8.44717C31.4612 8.94704 33.2053 8.94704 34.8372 8.44717L49.7876 3.86761C56.3404 1.86035 62.4731 7.99308 60.4659 14.5459L55.8863 29.4963C55.3865 31.1282 55.3865 32.8723 55.8863 34.5042L60.4659 49.4545C62.4731 56.0074 56.3404 62.1401 49.7876 60.1329L34.8372 55.5533C33.2053 55.0535 31.4612 55.0535 29.8293 55.5533L14.879 60.1329C8.3261 62.1401 2.19336 56.0074 4.20062 49.4545L8.78018 34.5042C9.28005 32.8723 9.28005 31.1282 8.78018 29.4963L4.20062 14.546Z" fill="#35B454"/>
</svg>
