<svg width="30" height="30" viewBox="0 0 30 30" fill="none" xmlns="http://www.w3.org/2000/svg">
<path fill-rule="evenodd" clip-rule="evenodd" d="M14.3751 7.82494C14.3974 7.80225 14.4208 7.78077 14.4454 7.7606C14.5046 7.71203 14.5686 7.67238 14.6357 7.64168C14.7459 7.59118 14.8683 7.56288 14.9973 7.5625H14.9999C15.0035 7.5625 15.0071 7.56252 15.0107 7.56256C15.1154 7.56382 15.2157 7.58349 15.3085 7.61847C15.4216 7.661 15.5277 7.72777 15.6187 7.81878L22.1812 14.3813C22.5229 14.723 22.5229 15.277 22.1812 15.6187C21.8395 15.9604 21.2855 15.9604 20.9438 15.6187L15.8749 10.5499V21.5625C15.8749 22.0458 15.4832 22.4375 14.9999 22.4375C14.5167 22.4375 14.1249 22.0458 14.1249 21.5625V10.55L9.05622 15.6187C8.71451 15.9604 8.16049 15.9604 7.81878 15.6187C7.47707 15.277 7.47707 14.723 7.81878 14.3813L14.3751 7.82494Z" fill="#212121"/>
</svg>
