<svg width="30" height="29" viewBox="0 0 30 29" fill="none" xmlns="http://www.w3.org/2000/svg">
<path fill-rule="evenodd" clip-rule="evenodd" d="M11.1438 7.15665C12.2547 6.59787 13.5098 6.28322 14.8384 6.28322C17.7308 6.28322 20.2745 7.77437 21.7411 10.0291H20.282C19.5762 10.0291 18.8993 10.3091 18.4002 10.8077C17.901 11.3062 17.6207 11.9824 17.6207 12.6874C17.6207 12.9437 17.5188 13.1897 17.3372 13.3709C17.1558 13.5522 16.9096 13.6541 16.6529 13.6541C16.3963 13.6541 16.1501 13.5522 15.9686 13.3709C15.7872 13.1897 15.6852 12.9437 15.6852 12.6874C15.6852 11.9824 15.4048 11.3062 14.9058 10.8077C14.4066 10.3091 13.7298 10.0291 13.0239 10.0291C13.0079 10.0291 12.992 10.0295 12.976 10.0304C12.5702 10.0534 12.1679 9.94408 11.8297 9.71885C11.5282 9.51801 11.2921 9.23472 11.1489 8.90412V7.24989C11.1489 7.21837 11.1472 7.18727 11.1438 7.15665ZM9.45536 8.28678C8.13598 9.42835 7.18392 10.9822 6.80003 12.7478H8.48762C9.19343 12.7478 9.87032 13.0278 10.3695 13.5265C10.8685 14.025 11.1489 14.7011 11.1489 15.4061V16.3124C11.1489 16.5687 11.2509 16.8147 11.4323 16.9959C11.6138 17.1772 11.86 17.2791 12.1166 17.2791C12.8225 17.2791 13.4993 17.5591 13.9985 18.0577C14.4976 18.5562 14.7779 19.2324 14.7779 19.9374V22.7164C14.7981 22.7165 14.8183 22.7166 14.8384 22.7166C15.4834 22.7166 16.1112 22.6424 16.7134 22.5021V19.0311C16.7134 18.3261 16.9938 17.65 17.4929 17.1515C17.992 16.6528 18.6689 16.3728 19.3747 16.3728H22.8496C22.99 15.7712 23.0642 15.1442 23.0642 14.4999C23.0642 13.5244 22.8941 12.5888 22.5818 11.7207H20.282C20.0253 11.7207 19.7791 11.8226 19.5977 12.0039C19.4162 12.1851 19.3142 12.431 19.3142 12.6874C19.3142 13.3924 19.0339 14.0686 18.5348 14.5671C18.0356 15.0657 17.3588 15.3457 16.6529 15.3457C15.9472 15.3457 15.2702 15.0657 14.7712 14.5671C14.272 14.0686 13.9916 13.3924 13.9916 12.6874C13.9916 12.431 13.8897 12.1851 13.7082 12.0039C13.5311 11.827 13.2924 11.7257 13.0426 11.7209C12.2802 11.7578 11.5258 11.5496 10.8903 11.1264C10.2467 10.6978 9.7599 10.0719 9.5033 9.34297C9.47157 9.25282 9.45536 9.15795 9.45536 9.06239V8.28678ZM22.252 18.0645H19.3747C19.1181 18.0645 18.8719 18.1664 18.6904 18.3476C18.509 18.5289 18.407 18.7748 18.407 19.0311V21.9052C20.0833 21.0977 21.4435 19.7389 22.252 18.0645ZM14.1346 24.3837C14.367 24.3999 14.6018 24.4082 14.8384 24.4082C20.3167 24.4082 24.7578 19.9721 24.7578 14.4999C24.7578 9.02766 20.3167 4.59155 14.8384 4.59155C9.36011 4.59155 4.91907 9.02766 4.91907 14.4999C4.91907 19.5432 8.69119 23.7064 13.571 24.3281C13.6802 24.3795 13.8023 24.4082 13.9312 24.4082C14.0013 24.4082 14.0693 24.3997 14.1346 24.3837ZM13.0844 22.5293V19.9374C13.0844 19.681 12.9825 19.4351 12.8009 19.2539C12.6195 19.0726 12.3733 18.9707 12.1166 18.9707C11.4109 18.9707 10.7339 18.6907 10.2349 18.1921C9.7357 17.6936 9.45536 17.0174 9.45536 16.3124V15.4061C9.45536 15.1498 9.3534 14.9039 9.17191 14.7226C8.99043 14.5414 8.74427 14.4395 8.48762 14.4395H6.6731C6.65284 14.4395 6.63274 14.4388 6.61285 14.4373C6.61269 14.4582 6.61262 14.479 6.61262 14.4999C6.61262 18.4365 9.38411 21.7266 13.0844 22.5293Z" fill="#212121"/>
</svg>
