<svg width="30" height="29" viewBox="0 0 30 29" fill="none" xmlns="http://www.w3.org/2000/svg">
<path fill-rule="evenodd" clip-rule="evenodd" d="M15.4589 4.64541C15.2672 4.5736 15.0559 4.5736 14.8643 4.64541L7.60622 7.36416C7.27571 7.48796 7.05676 7.80355 7.05676 8.15614V14.4999C7.05676 17.5962 9.10986 20.0766 10.975 21.7068C11.9253 22.5373 12.8716 23.1868 13.5788 23.6283C13.9332 23.8496 14.2298 24.0199 14.4396 24.136C14.5447 24.1941 14.6281 24.2387 14.6864 24.2692C14.7157 24.2846 14.7386 24.2964 14.7548 24.3047L14.774 24.3145L14.7798 24.3174L14.7817 24.3183C14.782 24.3184 14.7829 24.3189 15.1616 23.5624L14.7829 24.3189C15.0213 24.438 15.3019 24.438 15.5403 24.3189L15.1616 23.5624C15.5403 24.3189 15.5401 24.319 15.5403 24.3189L15.5415 24.3183L15.5434 24.3174L15.5492 24.3145L15.5684 24.3047C15.5846 24.2964 15.6075 24.2846 15.6368 24.2692C15.6951 24.2387 15.7785 24.1941 15.8835 24.136C16.0934 24.0199 16.3901 23.8496 16.7444 23.6283C17.4516 23.1868 18.3979 22.5373 19.3483 21.7068C21.2134 20.0766 23.2664 17.5962 23.2664 14.4999V8.15614C23.2664 7.80355 23.0474 7.48796 22.717 7.36416L15.4589 4.64541ZM15.8469 22.1938C15.5742 22.364 15.3403 22.5005 15.1616 22.6011C14.983 22.5005 14.7491 22.364 14.4764 22.1938C13.8225 21.7856 12.9544 21.1889 12.0902 20.4337C10.3263 18.8919 8.75031 16.8411 8.75031 14.4999V8.7423L15.1616 6.34074L21.5729 8.7423V14.4999C21.5729 16.8411 19.9969 18.8919 18.233 20.4337C17.3688 21.1889 16.5007 21.7856 15.8469 22.1938ZM18.4821 13.2855C18.8128 12.9552 18.8128 12.4196 18.4821 12.0893C18.1514 11.759 17.6153 11.759 17.2846 12.0893L14.2544 15.1162L13.0386 13.9018C12.7079 13.5715 12.1718 13.5715 11.8411 13.9018C11.5104 14.2321 11.5104 14.7677 11.8411 15.098L13.6556 16.9105C13.9863 17.2408 14.5224 17.2408 14.8531 16.9105L18.4821 13.2855Z" fill="#212121"/>
</svg>
