<svg width="128" height="38" viewBox="0 0 128 38" fill="none" xmlns="http://www.w3.org/2000/svg">
<path d="M114.539 34.2316C114.539 34.8254 114.859 35.1455 115.453 35.1455H118.652C119.246 35.1455 119.565 34.8254 119.565 34.2316V18.5618C119.565 17.2826 120.388 16.4137 121.667 16.4137H126.784C127.377 16.4137 127.697 16.0936 127.697 15.4999V12.3012C127.697 11.7075 127.377 11.3873 126.784 11.3873H120.388C119.886 11.3873 119.565 11.7075 119.565 12.3012V13.8539C119.565 15.1781 118.788 15.9552 117.464 15.9552H117.052C115.544 15.9552 114.539 16.9608 114.539 18.6052V34.2316ZM100.56 15.3181C103.759 15.3181 106.317 17.3277 107.14 20.6631H93.9829C94.758 17.4661 97.1794 15.3181 100.56 15.3181ZM100.56 10.8869C93.5706 10.8869 88.8196 15.8667 88.8196 23.2213C88.8196 30.4393 93.4338 35.6475 101.018 35.6475C105.997 35.6475 109.88 33.3628 111.615 29.2518C111.889 28.6581 111.57 28.2929 110.975 28.2929H107.503C107.091 28.2929 106.772 28.4763 106.498 28.8415C105.401 30.3942 103.482 31.2631 101.153 31.2631C97.2235 31.2631 94.3448 28.7498 93.7507 24.684H111.386C111.887 24.684 112.207 24.3637 112.207 23.8618V23.3597C112.209 16.1403 107.686 10.8869 100.56 10.8869ZM77.3072 10.8403C73.6983 10.8403 70.7281 12.393 69.4039 15.1346C68.1699 12.4847 65.6582 10.8403 62.3679 10.8403C59.4443 10.8403 57.1596 12.0744 55.8805 14.129L55.2867 12.1644C55.1033 11.5708 54.7381 11.3873 54.1911 11.3873H51.9063C51.3125 11.3873 50.9924 11.7075 50.9924 12.3012V34.23C50.9924 34.8237 51.3125 35.1439 51.9063 35.1439H55.105C55.6986 35.1439 56.0188 34.8237 56.0188 34.23V20.935C56.0188 17.5996 58.1201 15.3615 61.2271 15.3615C64.1506 15.3615 66.1152 17.5545 66.1152 20.8433V34.2283C66.1152 34.8221 66.4353 35.1423 67.0291 35.1423H70.2277C70.8214 35.1423 71.1416 34.8221 71.1416 34.2283V20.9334C71.1416 17.598 73.2429 15.3599 76.3499 15.3599C79.2734 15.3599 81.238 17.5529 81.238 20.8417V34.2268C81.238 34.8205 81.5582 35.1407 82.1519 35.1407H85.3505C85.9442 35.1407 86.2644 34.8205 86.2644 34.2268V19.8811C86.2612 14.6793 82.9258 10.8403 77.3072 10.8403ZM45.7391 11.3889C46.3328 11.3889 46.653 11.7091 46.653 12.3028V34.2316C46.653 34.8254 46.3328 35.1455 45.7391 35.1455H42.5404C41.9467 35.1455 41.6265 34.8254 41.6265 34.2316V12.3028C41.6265 11.7091 41.9467 11.3889 42.5404 11.3889H45.7391ZM44.1397 8.7856C45.8758 8.7856 47.2 7.46141 47.2 5.72532C47.2 3.98923 45.8758 2.66504 44.1397 2.66504C42.4037 2.66504 41.0794 3.98923 41.0794 5.72532C41.0794 7.4598 42.4037 8.7856 44.1397 8.7856ZM25.8666 34.2316C25.8666 34.8254 26.1868 35.1455 26.7804 35.1455H29.9791C30.5728 35.1455 30.893 34.8254 30.893 34.2316V18.5618C30.893 17.2826 31.7152 16.4137 32.9943 16.4137H38.1109C38.7046 16.4137 39.0248 16.0936 39.0248 15.4999V12.3012C39.0248 11.7075 38.7046 11.3873 38.1109 11.3873H31.7152C31.2132 11.3873 30.893 11.7075 30.893 12.3012V13.8539C30.893 15.1781 30.1158 15.9552 28.7917 15.9552H28.3798C26.8721 15.9552 25.8666 16.9608 25.8666 18.6052V34.2316ZM5.90235 7.77999H11.9328C16.1821 7.77999 18.7855 10.2015 18.7855 14.084C18.7855 17.9664 16.1821 20.3879 11.9328 20.3879H5.90235V7.77999ZM4.98845 35.1455C5.58216 35.1455 5.90235 34.8254 5.90235 34.2316V24.9574H12.253C19.4709 24.9574 23.9937 20.7548 23.9937 14.084C23.9937 7.36808 19.4709 3.16543 12.253 3.16543H1.47122C0.877511 3.16543 0.557327 3.48562 0.557327 4.07933V34.2316C0.557327 34.8254 0.877511 35.1455 1.47122 35.1455H4.98845Z" fill="black"/>
</svg>
